<svg width="115" height="34" viewBox="0 0 115 34" fill="none" xmlns="http://www.w3.org/2000/svg">
<path d="M15.7951 17.762C15.8163 17.7743 15.8286 17.8012 15.8626 17.8437C15.4405 17.8012 15.0741 17.655 14.7027 17.5303C13.4892 17.1222 12.3064 16.6546 11.2319 15.9568C9.97988 15.144 8.98918 14.1043 8.29725 12.8179C7.4188 11.1836 7.01169 9.45048 7.24736 7.60336C7.25573 7.541 7.26244 7.47918 7.26746 7.41682C7.29148 7.10664 7.39702 7.01847 7.71478 7.06901C8.22912 7.15072 8.7362 7.25823 9.22485 7.44208C10.2775 7.83882 11.2761 8.33178 12.1556 9.02256C12.4449 9.2505 12.7146 9.508 12.9933 9.85742C12.5058 9.66228 12.0908 9.49079 11.672 9.32952C10.8053 8.99569 9.90449 8.78388 8.98471 8.63766C8.77752 8.60487 8.70716 8.64303 8.71498 8.85914C8.78758 10.953 9.53535 12.7937 10.9868 14.3483C12.1171 15.5595 13.5361 16.4239 14.9613 17.2728C15.2383 17.4378 15.5181 17.598 15.7951 17.762Z" fill="#505168"/>
<path d="M11.2012 16.897C11.2129 16.9035 11.2141 16.9266 11.2213 16.9459C11.1454 17.0158 11.0465 16.9932 10.96 16.9943C9.79446 17.0115 8.63623 16.9578 7.50089 16.6761C5.99194 16.3024 4.79908 15.0037 4.90519 13.3318C4.94596 12.6888 4.97332 12.0464 5.08836 11.4105C5.104 11.325 5.07943 11.2175 5.19614 11.1863C5.3218 11.1524 5.37373 11.2524 5.4346 11.3315C6.37951 12.5636 7.37579 13.7549 8.42569 14.9058C9.16229 15.7133 10.0312 16.3395 11.0309 16.8062C11.089 16.833 11.1459 16.8642 11.2012 16.897Z" fill="#505168"/>
<path d="M10.7561 26.7589C10.8187 26.761 10.8807 26.7761 10.984 26.7911C10.8215 26.9218 10.6584 26.9621 10.4998 26.9873C8.42627 27.3239 6.35831 27.4464 4.3166 26.8013C3.32143 26.4869 2.47258 25.9229 1.63266 25.3402C1.02115 24.9166 0.520777 24.3951 0.0812726 23.8113C-0.0332107 23.6592 -0.0443797 23.5743 0.163366 23.478C1.14736 23.0206 2.16599 22.6663 3.23934 22.4642C3.31305 22.4502 3.4024 22.4212 3.43926 22.5018C3.47835 22.5878 3.37839 22.6217 3.32645 22.6631C2.90873 22.9915 2.48766 23.3162 2.0677 23.642C1.97332 23.7151 1.89737 23.7732 2.04368 23.885C3.52024 25.016 5.13976 25.8686 7.00611 26.2261C8.24588 26.4637 9.48677 26.7062 10.7561 26.7589Z" fill="#505168"/>
<path d="M22.9863 23.6205C22.8109 23.6205 22.716 23.5415 22.6244 23.4775C21.7158 22.8405 20.7128 22.3647 19.6853 21.9459C18.6789 21.5363 17.6117 21.318 16.5278 21.188C14.6988 20.9686 12.8587 20.8831 11.0231 20.7477C9.96536 20.6697 8.97355 20.3391 7.99513 19.9553C7.21497 19.6489 6.48731 19.2613 5.787 18.8178C5.71049 18.7694 5.61891 18.6511 5.52732 18.7215C5.42177 18.8033 5.51168 18.9248 5.55413 19.0178C5.95677 19.9026 6.56437 20.6654 7.11613 21.4627C8.32742 23.2125 9.9877 24.3935 12.0344 25.0854C12.9274 25.3875 13.8589 25.5036 14.7993 25.5649C15.5594 25.6149 16.3189 25.6708 17.0795 25.6171C15.1545 26.1261 13.2329 26.2708 11.2576 25.8649C9.26059 25.4542 7.60142 24.5048 6.19523 23.1388C4.35345 21.3498 3.43367 19.1597 3.35661 16.6417C3.34655 16.3196 3.33203 15.9971 3.3728 15.6756C3.3795 15.624 3.40017 15.5735 3.42809 15.4751C3.7425 15.7907 4.04853 16.0691 4.35736 16.3444C5.39218 17.2663 6.62245 17.719 8.01636 17.8082C9.7794 17.9206 11.5447 18.0173 13.2921 18.2856C14.6514 18.4942 16.0129 18.6909 17.337 19.0704C18.1557 19.3048 18.8515 19.7618 19.5144 20.2488C20.6871 21.1105 21.6778 22.1588 22.6479 23.2227C22.7562 23.341 22.8562 23.4667 22.9863 23.6205Z" fill="#505168"/>
<path d="M23.8435 24.393C23.6715 24.6102 23.4872 24.7042 23.3247 24.8209C23.1611 24.9381 22.9936 25.0526 22.8188 25.1547C21.6577 25.8321 20.4906 26.4987 19.2782 27.0911C18.5522 27.4459 17.7876 27.6405 16.984 27.7152C16.845 27.7281 16.7059 27.7405 16.5674 27.7577C16.5065 27.7652 16.4239 27.7529 16.406 27.8303C16.3915 27.891 16.4585 27.9195 16.501 27.9512C17.0913 28.3996 17.743 28.7243 18.4656 28.9404C20.0807 29.422 21.4081 28.8506 22.6222 27.9066C23.4671 27.2491 24.1239 26.4191 24.7454 25.566C24.7817 25.5165 24.8214 25.4692 24.8962 25.3746C25.0554 26.2788 24.8555 27.054 24.3679 27.7572C23.7173 28.6952 22.9584 29.5317 21.9325 30.1198C21.2054 30.5364 20.4034 30.7203 19.5903 30.866C17.8468 31.1772 16.2804 30.6767 14.8021 29.8349C14.2722 29.5333 13.8533 29.1113 13.554 28.5931C13.315 28.1792 13.1084 27.7475 12.8822 27.3266C12.7811 27.1384 12.8364 27.0658 13.0514 27.0658C13.5814 27.0653 14.1119 27.0648 14.6424 27.0513C16.1732 27.0126 17.6413 26.6632 19.09 26.2154C20.6335 25.7385 22.1335 25.1585 23.6012 24.4984C23.6587 24.4726 23.7173 24.4478 23.8435 24.393Z" fill="#505168"/>
<path d="M38.0931 26.9949C38.1936 27.1277 38.0361 27.2846 37.9529 27.3981C37.2269 28.3845 36.5199 29.4011 35.4376 30.0639C34.3799 30.7122 33.2111 31.0455 31.9411 30.995C31.4112 30.974 30.8789 30.9859 30.3557 30.8934C29.0461 30.6628 28.0102 29.9768 27.1211 29.0592C26.5537 28.4738 26.1483 27.7948 25.9372 27.0164C25.7847 26.453 25.8852 25.8971 26.002 25.3171C26.1438 25.3676 26.246 25.444 26.2918 25.5472C26.6336 26.3116 27.287 26.8298 27.8521 27.4217C28.8143 28.4302 29.9966 28.8361 31.4061 28.7614C32.2913 28.7146 33.1485 28.6184 33.9342 28.1953C34.0113 28.1539 34.1453 28.1378 34.1292 28.0345C34.1141 27.9378 33.9845 27.9362 33.8957 27.9206C32.1606 27.6152 30.6237 26.8852 29.1874 25.9224C28.544 25.4913 27.9292 25.0316 27.3584 24.5161C27.3126 24.4747 27.2484 24.4441 27.2551 24.3199C27.5684 24.4285 27.8722 24.5231 28.1671 24.6381C29.5638 25.1811 30.9281 25.8036 32.351 26.2831C34.0716 26.8626 35.8296 27.2061 37.667 26.9605C37.811 26.9411 38.0149 26.8922 38.0931 26.9949Z" fill="#505168"/>
<path d="M40.1633 26.8847C40.1124 26.8696 40.0627 26.8497 40.0125 26.832C40.0136 26.8078 40.0147 26.7836 40.0153 26.7599C40.3922 26.7336 40.7692 26.7024 41.1461 26.6825C42.7824 26.596 44.3746 26.2901 45.9232 25.781C46.7608 25.5058 47.4572 24.98 48.1933 24.5279C48.5172 24.329 48.7897 24.0721 49.0745 23.8285C49.2426 23.6845 49.2337 23.5721 49.0606 23.4404C48.6311 23.1119 48.2078 22.7754 47.7828 22.4421C47.7119 22.3868 47.6276 22.3427 47.5835 22.2314C47.6851 22.1927 47.7733 22.2271 47.866 22.2534C48.9075 22.5491 49.8536 23.0571 50.8353 23.4861C50.985 23.5511 51.0671 23.6253 50.9303 23.7866C50.3355 24.4871 49.7463 25.1881 49.0187 25.773C47.7717 26.7745 46.3024 27.2314 44.7247 27.3099C43.1923 27.3862 41.6532 27.3255 40.1633 26.8847Z" fill="#505168"/>
<path d="M48.286 15.0816C48.415 15.1268 48.3563 15.288 48.3508 15.3961C48.248 17.4701 47.7314 19.4225 46.5576 21.1933C45.602 22.6351 44.4153 23.8581 42.9081 24.7602C41.4963 25.6058 39.9572 26.0853 38.2723 26.1471C37.2414 26.1853 36.2295 26.1466 35.2248 25.9256C35.1796 25.9159 35.1338 25.9057 35.0902 25.8912C35.0757 25.8864 35.0662 25.8676 35.035 25.8353C35.5811 25.7778 36.1094 25.7117 36.6394 25.6676C38.5158 25.5122 40.1945 24.851 41.7185 23.814C42.3457 23.3872 42.8271 22.8093 43.3057 22.2362C43.9803 21.4288 44.489 20.5224 45.0106 19.6236C45.119 19.4365 45.2631 19.2672 45.3195 19.0538C45.3334 19.0027 45.358 18.9452 45.2977 18.9097C45.2469 18.8791 45.215 18.9312 45.1793 18.9549C43.7078 19.9085 42.0497 20.3708 40.3347 20.7133C38.6415 21.0514 36.9292 21.1562 35.2092 21.2207C32.9514 21.3057 30.8572 21.9271 28.9126 23.027C28.6836 23.1566 28.4513 23.2807 28.2212 23.4076C28.205 23.3893 28.1889 23.3716 28.1732 23.3539C28.6261 22.7899 29.0986 22.2438 29.6297 21.7422C30.8192 20.6197 32.2728 19.8983 33.7432 19.2037C34.8356 18.6882 36.0201 18.5162 37.2096 18.3452C38.9615 18.0937 40.7334 18.1028 42.4898 17.9119C43.438 17.8093 44.3751 17.6448 45.2418 17.2631C46.3152 16.7911 47.2685 16.1396 48.0564 15.2805C48.1257 15.2052 48.172 15.0413 48.286 15.0816Z" fill="#505168"/>
<path d="M46.6274 11.2648C46.6363 11.8803 46.7424 12.4926 46.6257 13.1119C46.5447 13.5414 46.5989 13.9855 46.5386 14.4225C46.394 15.4681 45.7311 16.1025 44.8046 16.5621C43.8061 17.0577 42.7394 17.0943 41.6549 17.0685C41.1255 17.0556 40.5961 17.0653 40.0667 17.062C39.979 17.0615 39.8841 17.0943 39.7897 17.026C40.0376 16.718 40.4269 16.6411 40.7513 16.4734C41.8621 15.8998 42.9165 15.2617 43.791 14.3688C44.7499 13.3893 45.5848 12.319 46.3727 11.2116C46.4169 11.1503 46.4331 11.0342 46.5369 11.0589C46.6291 11.081 46.6263 11.1895 46.6274 11.2648Z" fill="#505168"/>
<path d="M35.0735 17.941C35.623 17.6018 36.234 17.3986 36.7729 17.0642C37.9663 16.324 39.1999 15.6316 40.2336 14.6811C41.2539 13.743 41.985 12.612 42.3736 11.3051C42.5775 10.6192 42.6841 9.90581 42.6808 9.18331C42.6797 8.9715 42.6065 8.92204 42.391 8.91075C41.2489 8.85055 40.1828 9.1403 39.134 9.52574C39.0525 9.55531 38.976 9.6209 38.8559 9.57735C39.2982 9.10805 39.8578 8.83012 40.4252 8.57047C41.4656 8.09471 42.5082 7.62326 43.5916 7.24158C43.6871 7.20771 43.7826 7.17169 43.8803 7.14427C44.3254 7.01687 44.3288 7.01741 44.4008 7.48026C44.7884 9.96817 44.1652 12.161 42.3474 14.0075C41.2327 15.1402 39.9042 15.9772 38.4617 16.6707C37.3939 17.1841 36.2826 17.583 35.1506 17.9356C35.1271 17.9431 35.0992 17.9394 35.0735 17.941Z" fill="#505168"/>
<path d="M31.8428 19.0952C31.8194 19.1091 31.7948 19.1237 31.7686 19.1312C31.7541 19.135 31.7351 19.1247 31.6697 19.1097C32.0556 18.621 32.4259 18.1453 32.8039 17.6749C33.6187 16.6599 34.3933 15.6187 34.9183 14.4317C35.3282 13.5044 35.5867 12.5281 35.68 11.5277C35.7688 10.5751 35.5348 9.65853 35.1182 8.79303C34.6597 7.84044 34.1135 6.9357 33.4579 6.09493C33.3523 5.95946 33.2295 5.83635 33.1111 5.71056C32.7442 5.32028 32.7392 5.31275 32.2461 5.56326C31.5888 5.89656 30.9432 6.25082 30.2719 6.6782C30.4512 6.12503 30.7673 5.72292 31.0672 5.31759C31.6161 4.57465 32.1779 3.8414 32.8564 3.19792C32.9916 3.06997 33.1111 3.05492 33.2407 3.15491C33.9209 3.68013 34.682 4.13008 35.1433 4.8714C35.8531 6.00945 36.4736 7.18728 36.7913 8.49521C36.9873 9.30104 37.1197 10.1133 37.1398 10.9385C37.1666 12.0389 36.9047 13.092 36.4507 14.0941C35.4789 16.2385 33.9024 17.8754 31.8428 19.0952Z" fill="#505168"/>
<path d="M32.7838 12.6136C33.039 14.1059 32.7978 15.5649 32.0768 16.9201C31.252 18.471 30.259 19.9187 29.0589 21.2293C28.7026 21.6191 28.2933 21.9535 27.8761 22.2841C28.0314 22.0147 28.2609 21.8008 28.4485 21.5573C28.9511 20.9041 29.2734 20.159 29.6637 19.4489C30.464 17.992 30.7114 16.4212 30.6734 14.7972C30.6555 14.0382 30.4551 13.3135 30.1328 12.62C29.5872 11.4476 28.8149 10.4208 27.9342 9.46606C27.3227 8.80323 26.6743 8.17373 26.0025 7.56734C25.8467 7.42596 25.735 7.42219 25.5809 7.55713C24.5583 8.45488 23.4721 9.29243 22.5557 10.2929C21.1707 11.8045 20.3291 13.5565 20.3593 15.6068C20.3822 17.1513 20.8117 18.5984 21.6013 19.9612C22.1877 20.9724 22.902 21.875 23.7156 22.7157C23.734 22.7351 23.7491 22.7571 23.7659 22.7781C22.6786 22.0626 21.8007 21.1503 21.0669 20.1069C20.6034 19.4478 20.0745 18.8264 19.7042 18.113C19.3111 17.3556 18.7973 16.6406 18.6555 15.7831C18.479 14.7128 18.3494 13.6339 18.551 12.5539C18.6817 11.8508 18.9838 11.196 19.3697 10.5955C20.0443 9.54563 20.7731 8.52423 21.7136 7.67109C22.6395 6.83086 23.6441 6.07879 24.6499 5.3294C24.9654 5.09448 25.2921 4.87246 25.5987 4.62679C25.7255 4.52519 25.8154 4.53271 25.9433 4.60636C26.671 5.02567 27.3623 5.49283 28.009 6.02073C28.988 6.81957 30.0033 7.58723 30.7745 8.58659C31.7127 9.80097 32.5247 11.0992 32.7838 12.6136Z" fill="#505168"/>
<path d="M21.1406 6.67658C20.5291 6.45617 19.9969 6.10997 19.4373 5.81323C18.6387 5.38962 18.8761 5.32403 18.2249 5.97504C17.0823 7.11793 16.2575 8.4565 15.7688 9.95688C15.0903 12.0389 15.4801 13.9898 16.7763 15.7724C17.2454 16.4175 17.7402 17.0438 18.1825 17.7077C18.4371 18.0899 18.761 18.4291 19.047 18.7925C19.1095 18.8726 19.1994 18.9473 19.1983 19.0925C18.8063 18.9242 18.5042 18.6587 18.192 18.4184C17.0136 17.5098 16.0084 16.4621 15.3014 15.1558C14.8742 14.3672 14.4654 13.5882 14.2979 12.6991C14.065 11.461 14.1248 10.2499 14.4604 9.03655C15.025 6.99751 16.0201 5.18157 17.4431 3.58013C17.6117 3.39036 17.7921 3.2092 18.0032 3.05868C18.0764 3.00653 18.1238 2.9646 18.2121 3.0447C19.3826 4.10749 20.3822 5.29877 21.1406 6.67658Z" fill="#505168"/>
<path d="M56.442 4.796C56.6673 4.80467 56.962 4.81333 57.326 4.822C57.69 4.83067 58.054 4.835 58.418 4.835C58.834 4.835 59.237 4.83067 59.627 4.822C60.017 4.81333 60.2943 4.809 60.459 4.809C61.5337 4.809 62.3353 4.99967 62.864 5.381C63.4013 5.76233 63.67 6.252 63.67 6.85C63.67 7.15333 63.579 7.461 63.397 7.773C63.215 8.085 62.9333 8.36233 62.552 8.605C62.1707 8.84767 61.6767 9.02533 61.07 9.138V9.164C61.8847 9.22467 62.5303 9.372 63.007 9.606C63.4837 9.84 63.826 10.1217 64.034 10.451C64.242 10.7803 64.346 11.1227 64.346 11.478C64.346 12.024 64.203 12.4833 63.917 12.856C63.631 13.2287 63.2193 13.5147 62.682 13.714C62.1447 13.9047 61.5033 14 60.758 14C60.55 14 60.251 13.9957 59.861 13.987C59.471 13.9697 58.9987 13.961 58.444 13.961C58.0627 13.961 57.69 13.9653 57.326 13.974C56.962 13.974 56.6673 13.9827 56.442 14V13.74C56.7193 13.7227 56.9273 13.688 57.066 13.636C57.2047 13.584 57.2957 13.48 57.339 13.324C57.391 13.168 57.417 12.934 57.417 12.622V6.174C57.417 5.85333 57.391 5.61933 57.339 5.472C57.2957 5.316 57.2003 5.212 57.053 5.16C56.9143 5.09933 56.7107 5.06467 56.442 5.056V4.796ZM60.29 5.056C59.952 5.056 59.731 5.12967 59.627 5.277C59.5317 5.42433 59.484 5.72333 59.484 6.174V12.622C59.484 12.9253 59.5057 13.155 59.549 13.311C59.601 13.467 59.6877 13.571 59.809 13.623C59.939 13.675 60.1297 13.701 60.381 13.701C61.005 13.701 61.46 13.506 61.746 13.116C62.0407 12.7173 62.188 12.154 62.188 11.426C62.188 10.7587 62.019 10.243 61.681 9.879C61.3517 9.515 60.8013 9.333 60.03 9.333H58.925C58.925 9.333 58.925 9.29833 58.925 9.229C58.925 9.151 58.925 9.112 58.925 9.112H60.043C60.4503 9.112 60.7623 9.01667 60.979 8.826C61.1957 8.62667 61.3473 8.36667 61.434 8.046C61.5207 7.71667 61.564 7.36567 61.564 6.993C61.564 6.35167 61.4643 5.87067 61.265 5.55C61.0657 5.22067 60.7407 5.056 60.29 5.056ZM69.7004 7.097C70.463 7.097 71.061 7.32233 71.4944 7.773C71.9277 8.22367 72.1444 8.96033 72.1444 9.983H67.8674L67.8414 9.736H70.5064C70.515 9.31133 70.489 8.92133 70.4284 8.566C70.3677 8.202 70.2724 7.91167 70.1424 7.695C70.0124 7.47833 69.839 7.37 69.6224 7.37C69.319 7.37 69.059 7.56067 68.8424 7.942C68.6344 8.32333 68.5087 8.956 68.4654 9.84L68.5044 9.918C68.4957 10.022 68.487 10.1303 68.4784 10.243C68.4784 10.3557 68.4784 10.4727 68.4784 10.594C68.4784 11.192 68.5607 11.6773 68.7254 12.05C68.8987 12.4227 69.1154 12.6957 69.3754 12.869C69.6354 13.0337 69.8997 13.116 70.1684 13.116C70.3504 13.116 70.5367 13.09 70.7274 13.038C70.9267 12.9773 71.126 12.8733 71.3254 12.726C71.5247 12.57 71.711 12.3533 71.8844 12.076L72.1184 12.154C72.0144 12.4833 71.8497 12.804 71.6244 13.116C71.399 13.428 71.113 13.6837 70.7664 13.883C70.4197 14.0823 70.0037 14.182 69.5184 14.182C68.929 14.182 68.409 14.0563 67.9584 13.805C67.5077 13.5537 67.1524 13.1723 66.8924 12.661C66.641 12.1497 66.5154 11.4997 66.5154 10.711C66.5154 9.905 66.6497 9.23333 66.9184 8.696C67.1957 8.15867 67.5727 7.76 68.0494 7.5C68.5347 7.23133 69.085 7.097 69.7004 7.097ZM75.9912 14.091C75.6012 14.091 75.2762 14.0173 75.0162 13.87C74.7562 13.7227 74.5655 13.5277 74.4442 13.285C74.3228 13.0337 74.2622 12.7607 74.2622 12.466C74.2622 12.0933 74.3445 11.79 74.5092 11.556C74.6825 11.322 74.9035 11.1313 75.1722 10.984C75.4408 10.8367 75.7225 10.7153 76.0172 10.62C76.3205 10.5247 76.6065 10.4337 76.8752 10.347C77.1525 10.2517 77.3735 10.1433 77.5382 10.022C77.7115 9.892 77.7982 9.72733 77.7982 9.528V8.514C77.7982 8.28867 77.7592 8.08933 77.6812 7.916C77.6118 7.734 77.4992 7.59533 77.3432 7.5C77.1958 7.40467 77.0008 7.357 76.7582 7.357C76.5848 7.357 76.4115 7.383 76.2382 7.435C76.0648 7.47833 75.9218 7.55633 75.8092 7.669C76.0518 7.75567 76.2382 7.89 76.3682 8.072C76.5068 8.24533 76.5762 8.44467 76.5762 8.67C76.5762 8.96467 76.4722 9.19867 76.2642 9.372C76.0648 9.54533 75.8265 9.632 75.5492 9.632C75.2372 9.632 74.9988 9.53667 74.8342 9.346C74.6782 9.14667 74.6002 8.90833 74.6002 8.631C74.6002 8.37967 74.6608 8.17167 74.7822 8.007C74.9122 7.84233 75.0898 7.68633 75.3152 7.539C75.5578 7.40033 75.8482 7.292 76.1862 7.214C76.5328 7.136 76.9055 7.097 77.3042 7.097C77.7028 7.097 78.0625 7.14033 78.3832 7.227C78.7038 7.305 78.9725 7.45233 79.1892 7.669C79.3885 7.86833 79.5185 8.11533 79.5792 8.41C79.6398 8.696 79.6702 9.06 79.6702 9.502V13.038C79.6702 13.2547 79.6918 13.4063 79.7352 13.493C79.7785 13.571 79.8522 13.61 79.9562 13.61C80.0342 13.61 80.1078 13.5883 80.1772 13.545C80.2552 13.5017 80.3375 13.4497 80.4242 13.389L80.5542 13.61C80.3722 13.766 80.1598 13.8873 79.9172 13.974C79.6832 14.052 79.4188 14.091 79.1242 14.091C78.8035 14.091 78.5478 14.0477 78.3572 13.961C78.1665 13.8657 78.0278 13.74 77.9412 13.584C77.8632 13.428 77.8242 13.246 77.8242 13.038C77.6162 13.3673 77.3648 13.6273 77.0702 13.818C76.7755 14 76.4158 14.091 75.9912 14.091ZM76.9142 13.259C77.0875 13.259 77.2435 13.22 77.3822 13.142C77.5295 13.0553 77.6682 12.9167 77.7982 12.726V10.061C77.7202 10.191 77.6118 10.308 77.4732 10.412C77.3345 10.516 77.1872 10.6243 77.0312 10.737C76.8752 10.841 76.7235 10.958 76.5762 11.088C76.4375 11.218 76.3248 11.3783 76.2382 11.569C76.1515 11.7597 76.1082 11.9893 76.1082 12.258C76.1082 12.596 76.1818 12.8473 76.3292 13.012C76.4765 13.1767 76.6715 13.259 76.9142 13.259ZM88.6997 7.136V12.583C88.6997 12.973 88.7603 13.2633 88.8817 13.454C89.003 13.636 89.2197 13.727 89.5317 13.727V14C89.263 13.974 88.9943 13.961 88.7257 13.961C88.3617 13.961 88.0237 13.974 87.7117 14C87.3997 14.026 87.105 14.0737 86.8277 14.143V12.973C86.6197 13.4063 86.3293 13.7183 85.9567 13.909C85.5927 14.091 85.1853 14.182 84.7347 14.182C84.3707 14.182 84.076 14.1343 83.8507 14.039C83.6253 13.9437 83.4477 13.8223 83.3177 13.675C83.1703 13.5103 83.0663 13.2937 83.0057 13.025C82.945 12.7563 82.9147 12.4097 82.9147 11.985V8.696C82.9147 8.306 82.854 8.02 82.7327 7.838C82.62 7.64733 82.4033 7.552 82.0827 7.552V7.279C82.36 7.305 82.6287 7.318 82.8887 7.318C83.2527 7.318 83.5907 7.305 83.9027 7.279C84.2233 7.24433 84.518 7.19667 84.7867 7.136V12.518C84.7867 12.7347 84.804 12.9253 84.8387 13.09C84.882 13.2547 84.96 13.3847 85.0727 13.48C85.1853 13.5667 85.35 13.61 85.5667 13.61C85.8007 13.61 86.0087 13.545 86.1907 13.415C86.3813 13.285 86.533 13.1073 86.6457 12.882C86.767 12.648 86.8277 12.388 86.8277 12.102V8.696C86.8277 8.306 86.767 8.02 86.6457 7.838C86.533 7.64733 86.3163 7.552 85.9957 7.552V7.279C86.273 7.305 86.5417 7.318 86.8017 7.318C87.1657 7.318 87.5037 7.305 87.8157 7.279C88.1363 7.24433 88.431 7.19667 88.6997 7.136ZM94.0485 5.147V7.279H95.5825V7.539H94.0485V12.791C94.0485 13.051 94.0961 13.2373 94.1915 13.35C94.2868 13.454 94.4298 13.506 94.6205 13.506C94.7765 13.506 94.9325 13.4497 95.0885 13.337C95.2445 13.2157 95.3831 13.012 95.5045 12.726L95.7255 12.843C95.5868 13.233 95.3745 13.5537 95.0885 13.805C94.8111 14.0563 94.4298 14.182 93.9445 14.182C93.6585 14.182 93.4071 14.143 93.1905 14.065C92.9738 13.9957 92.7918 13.8873 92.6445 13.74C92.4538 13.5493 92.3281 13.3153 92.2675 13.038C92.2068 12.752 92.1765 12.3837 92.1765 11.933V7.539H91.0845V7.279H92.1765V5.563C92.5405 5.563 92.8741 5.53267 93.1775 5.472C93.4895 5.40267 93.7798 5.29433 94.0485 5.147ZM103.637 7.279V7.539C103.472 7.58233 103.316 7.68633 103.169 7.851C103.021 8.007 102.878 8.27567 102.74 8.657L100.907 13.805L100.426 14.715L97.5918 8.28C97.4444 7.942 97.2971 7.73833 97.1498 7.669C97.0111 7.591 96.8898 7.552 96.7858 7.552V7.279C97.0718 7.305 97.3664 7.32667 97.6698 7.344C97.9818 7.35267 98.2808 7.357 98.5668 7.357C98.9221 7.357 99.2471 7.34833 99.5418 7.331C99.8364 7.31367 100.114 7.29633 100.374 7.279V7.552C100.2 7.552 100.036 7.565 99.8798 7.591C99.7324 7.60833 99.6284 7.669 99.5678 7.773C99.5158 7.86833 99.5418 8.03733 99.6458 8.28L101.284 12.232L101.167 12.31L102.129 9.619C102.293 9.151 102.363 8.76967 102.337 8.475C102.311 8.17167 102.215 7.94633 102.051 7.799C101.886 7.643 101.661 7.55633 101.375 7.539V7.279C101.513 7.28767 101.656 7.29633 101.804 7.305C101.951 7.305 102.098 7.30933 102.246 7.318C102.393 7.318 102.523 7.318 102.636 7.318C102.809 7.318 102.991 7.31367 103.182 7.305C103.372 7.29633 103.524 7.28767 103.637 7.279ZM100.907 13.805L100.413 15.196C100.326 15.4127 100.235 15.5947 100.14 15.742C100.053 15.898 99.9534 16.0237 99.8408 16.119C99.7194 16.223 99.5634 16.301 99.3728 16.353C99.1821 16.4137 98.9611 16.444 98.7098 16.444C98.5018 16.444 98.2851 16.4093 98.0598 16.34C97.8431 16.2707 97.6611 16.158 97.5138 16.002C97.3664 15.846 97.2928 15.6467 97.2928 15.404C97.2928 15.1353 97.3881 14.9187 97.5788 14.754C97.7694 14.598 98.0208 14.52 98.3328 14.52C98.6188 14.52 98.8528 14.5893 99.0348 14.728C99.2168 14.8667 99.3078 15.0703 99.3078 15.339C99.3078 15.5123 99.2514 15.677 99.1388 15.833C99.0348 15.989 98.8744 16.106 98.6578 16.184C98.7011 16.1927 98.7531 16.197 98.8138 16.197C98.8744 16.197 98.9221 16.197 98.9568 16.197C99.2168 16.197 99.4464 16.1147 99.6458 15.95C99.8451 15.7853 100.01 15.5253 100.14 15.17L100.595 13.831L100.907 13.805ZM59.692 21.627C60.2033 21.627 60.5977 21.6833 60.875 21.796C61.1523 21.9 61.3907 22.0127 61.59 22.134C61.694 22.1947 61.7763 22.2423 61.837 22.277C61.9063 22.303 61.9713 22.316 62.032 22.316C62.1187 22.316 62.1793 22.2683 62.214 22.173C62.2573 22.0777 62.292 21.9347 62.318 21.744H62.617C62.6083 21.9087 62.5953 22.108 62.578 22.342C62.5693 22.5673 62.5607 22.8663 62.552 23.239C62.552 23.6117 62.552 24.1013 62.552 24.708H62.253C62.2183 24.2573 62.1143 23.8197 61.941 23.395C61.7677 22.9703 61.5207 22.6237 61.2 22.355C60.888 22.0777 60.5023 21.939 60.043 21.939C59.627 21.939 59.2847 22.056 59.016 22.29C58.7473 22.524 58.613 22.849 58.613 23.265C58.613 23.6117 58.6997 23.9107 58.873 24.162C59.0463 24.4047 59.2977 24.643 59.627 24.877C59.965 25.111 60.3723 25.3927 60.849 25.722C61.265 25.9907 61.6377 26.2593 61.967 26.528C62.2963 26.7967 62.5607 27.1 62.76 27.438C62.9593 27.776 63.059 28.179 63.059 28.647C63.059 29.219 62.9073 29.6913 62.604 30.064C62.3093 30.4367 61.9193 30.7183 61.434 30.909C60.9487 31.091 60.4157 31.182 59.835 31.182C59.2977 31.182 58.8687 31.13 58.548 31.026C58.2273 30.922 57.9587 30.8137 57.742 30.701C57.5513 30.5797 57.404 30.519 57.3 30.519C57.2133 30.519 57.1483 30.5667 57.105 30.662C57.0703 30.7573 57.04 30.9003 57.014 31.091H56.715C56.7323 30.883 56.741 30.6403 56.741 30.363C56.7497 30.0857 56.754 29.726 56.754 29.284C56.7627 28.8333 56.767 28.2657 56.767 27.581H57.066C57.1007 28.153 57.196 28.6903 57.352 29.193C57.5167 29.687 57.7637 30.0857 58.093 30.389C58.431 30.6923 58.8773 30.844 59.432 30.844C59.7353 30.844 60.004 30.792 60.238 30.688C60.4807 30.5753 60.6757 30.4107 60.823 30.194C60.9703 29.9773 61.044 29.7087 61.044 29.388C61.044 29.024 60.9573 28.7077 60.784 28.439C60.6193 28.1703 60.3897 27.919 60.095 27.685C59.809 27.451 59.4753 27.2127 59.094 26.97C58.6867 26.7013 58.3053 26.4327 57.95 26.164C57.5947 25.8953 57.3087 25.5877 57.092 25.241C56.884 24.8943 56.78 24.4827 56.78 24.006C56.78 23.46 56.9143 23.0137 57.183 22.667C57.4603 22.3117 57.82 22.0517 58.262 21.887C58.7127 21.7137 59.1893 21.627 59.692 21.627ZM66.9978 31.091C66.6078 31.091 66.2828 31.0173 66.0228 30.87C65.7628 30.7227 65.5721 30.5277 65.4508 30.285C65.3295 30.0337 65.2688 29.7607 65.2688 29.466C65.2688 29.0933 65.3511 28.79 65.5158 28.556C65.6891 28.322 65.9101 28.1313 66.1788 27.984C66.4475 27.8367 66.7291 27.7153 67.0238 27.62C67.3271 27.5247 67.6131 27.4337 67.8818 27.347C68.1591 27.2517 68.3801 27.1433 68.5448 27.022C68.7181 26.892 68.8048 26.7273 68.8048 26.528V25.514C68.8048 25.2887 68.7658 25.0893 68.6878 24.916C68.6185 24.734 68.5058 24.5953 68.3498 24.5C68.2025 24.4047 68.0075 24.357 67.7648 24.357C67.5915 24.357 67.4181 24.383 67.2448 24.435C67.0715 24.4783 66.9285 24.5563 66.8158 24.669C67.0585 24.7557 67.2448 24.89 67.3748 25.072C67.5135 25.2453 67.5828 25.4447 67.5828 25.67C67.5828 25.9647 67.4788 26.1987 67.2708 26.372C67.0715 26.5453 66.8331 26.632 66.5558 26.632C66.2438 26.632 66.0055 26.5367 65.8408 26.346C65.6848 26.1467 65.6068 25.9083 65.6068 25.631C65.6068 25.3797 65.6675 25.1717 65.7888 25.007C65.9188 24.8423 66.0965 24.6863 66.3218 24.539C66.5645 24.4003 66.8548 24.292 67.1928 24.214C67.5395 24.136 67.9121 24.097 68.3108 24.097C68.7095 24.097 69.0691 24.1403 69.3898 24.227C69.7105 24.305 69.9791 24.4523 70.1958 24.669C70.3951 24.8683 70.5251 25.1153 70.5858 25.41C70.6465 25.696 70.6768 26.06 70.6768 26.502V30.038C70.6768 30.2547 70.6985 30.4063 70.7418 30.493C70.7851 30.571 70.8588 30.61 70.9628 30.61C71.0408 30.61 71.1145 30.5883 71.1838 30.545C71.2618 30.5017 71.3441 30.4497 71.4308 30.389L71.5608 30.61C71.3788 30.766 71.1665 30.8873 70.9238 30.974C70.6898 31.052 70.4255 31.091 70.1308 31.091C69.8101 31.091 69.5545 31.0477 69.3638 30.961C69.1731 30.8657 69.0345 30.74 68.9478 30.584C68.8698 30.428 68.8308 30.246 68.8308 30.038C68.6228 30.3673 68.3715 30.6273 68.0768 30.818C67.7821 31 67.4225 31.091 66.9978 31.091ZM67.9208 30.259C68.0941 30.259 68.2501 30.22 68.3888 30.142C68.5361 30.0553 68.6748 29.9167 68.8048 29.726V27.061C68.7268 27.191 68.6185 27.308 68.4798 27.412C68.3411 27.516 68.1938 27.6243 68.0378 27.737C67.8818 27.841 67.7301 27.958 67.5828 28.088C67.4441 28.218 67.3315 28.3783 67.2448 28.569C67.1581 28.7597 67.1148 28.9893 67.1148 29.258C67.1148 29.596 67.1885 29.8473 67.3358 30.012C67.4831 30.1767 67.6781 30.259 67.9208 30.259ZM75.8843 20.821V29.791C75.8843 30.155 75.945 30.402 76.0663 30.532C76.1963 30.662 76.413 30.727 76.7163 30.727V31C76.5516 30.9913 76.3046 30.9827 75.9753 30.974C75.646 30.9567 75.3123 30.948 74.9743 30.948C74.6363 30.948 74.294 30.9567 73.9473 30.974C73.6093 30.9827 73.3536 30.9913 73.1803 31V30.727C73.4836 30.727 73.696 30.662 73.8173 30.532C73.9473 30.402 74.0123 30.155 74.0123 29.791V22.381C74.0123 21.991 73.9516 21.705 73.8303 21.523C73.7176 21.3323 73.501 21.237 73.1803 21.237V20.964C73.4576 20.99 73.7263 21.003 73.9863 21.003C74.3416 21.003 74.6796 20.99 75.0003 20.964C75.321 20.9293 75.6156 20.8817 75.8843 20.821ZM81.7965 24.097C82.4291 24.097 82.9838 24.214 83.4605 24.448C83.9371 24.682 84.3098 25.059 84.5785 25.579C84.8471 26.099 84.9815 26.788 84.9815 27.646C84.9815 28.504 84.8471 29.193 84.5785 29.713C84.3098 30.2243 83.9371 30.597 83.4605 30.831C82.9838 31.065 82.4291 31.182 81.7965 31.182C81.1811 31.182 80.6308 31.065 80.1455 30.831C79.6688 30.597 79.2918 30.2243 79.0145 29.713C78.7458 29.193 78.6115 28.504 78.6115 27.646C78.6115 26.788 78.7458 26.099 79.0145 25.579C79.2918 25.059 79.6688 24.682 80.1455 24.448C80.6308 24.214 81.1811 24.097 81.7965 24.097ZM81.7965 24.357C81.4498 24.357 81.1595 24.617 80.9255 25.137C80.6915 25.6483 80.5745 26.4847 80.5745 27.646C80.5745 28.8073 80.6915 29.6437 80.9255 30.155C81.1595 30.6663 81.4498 30.922 81.7965 30.922C82.1518 30.922 82.4421 30.6663 82.6675 30.155C82.9015 29.6437 83.0185 28.8073 83.0185 27.646C83.0185 26.4847 82.9015 25.6483 82.6675 25.137C82.4421 24.617 82.1518 24.357 81.7965 24.357ZM91.9291 24.097C92.2931 24.097 92.5877 24.1447 92.8131 24.24C93.0471 24.3267 93.2291 24.448 93.3591 24.604C93.4977 24.7687 93.5974 24.981 93.6581 25.241C93.7274 25.501 93.7621 25.852 93.7621 26.294V29.791C93.7621 30.155 93.8227 30.402 93.9441 30.532C94.0741 30.662 94.2907 30.727 94.5941 30.727V31C94.4294 30.9913 94.1824 30.9827 93.8531 30.974C93.5237 30.9567 93.1987 30.948 92.8781 30.948C92.5487 30.948 92.2237 30.9567 91.9031 30.974C91.5911 30.9827 91.3527 30.9913 91.1881 31V30.727C91.4481 30.727 91.6301 30.662 91.7341 30.532C91.8381 30.402 91.8901 30.155 91.8901 29.791V25.748C91.8901 25.5313 91.8684 25.345 91.8251 25.189C91.7817 25.0243 91.7037 24.8987 91.5911 24.812C91.4784 24.7167 91.3094 24.669 91.0841 24.669C90.8501 24.669 90.6334 24.734 90.4341 24.864C90.2434 24.994 90.0874 25.176 89.9661 25.41C89.8534 25.6353 89.7971 25.891 89.7971 26.177V29.791C89.7971 30.155 89.8491 30.402 89.9531 30.532C90.0657 30.662 90.2477 30.727 90.4991 30.727V31C90.3431 30.9913 90.1134 30.9827 89.8101 30.974C89.5154 30.9567 89.2077 30.948 88.8871 30.948C88.5577 30.948 88.2197 30.9567 87.8731 30.974C87.5264 30.9827 87.2664 30.9913 87.0931 31V30.727C87.3964 30.727 87.6087 30.662 87.7301 30.532C87.8601 30.402 87.9251 30.155 87.9251 29.791V25.696C87.9251 25.306 87.8644 25.02 87.7431 24.838C87.6304 24.6473 87.4137 24.552 87.0931 24.552V24.279C87.3704 24.305 87.6391 24.318 87.8991 24.318C88.2631 24.318 88.6011 24.305 88.9131 24.279C89.2337 24.2443 89.5284 24.1967 89.7971 24.136V25.306C90.0137 24.864 90.3084 24.552 90.6811 24.37C91.0537 24.188 91.4697 24.097 91.9291 24.097Z" fill="#505168"/>
</svg>
